<svg width="18" height="18" viewBox="0 0 18 18" fill="none" xmlns="http://www.w3.org/2000/svg">
<g opacity="0.5">
<mask id="mask0_0_1941" style="mask-type:alpha" maskUnits="userSpaceOnUse" x="0" y="0" width="18" height="18">
<path fill-rule="evenodd" clip-rule="evenodd" d="M0 3.05176e-05V18H17.9692V3.05176e-05L0 3.05176e-05L0 3.05176e-05Z" fill="white"/>
</mask>
<g mask="url(#mask0_0_1941)">
<path fill-rule="evenodd" clip-rule="evenodd" d="M14.3872 14.4032C13.2264 14.4032 12.2821 13.4864 12.2821 12.3594C12.2821 11.2323 13.2264 10.3155 14.3872 10.3155C15.548 10.3155 16.4923 11.2323 16.4923 12.3594C16.4923 13.4864 15.548 14.4032 14.3872 14.4032ZM7.16405 3.50795L16.4923 1.60085V3.44862L7.16405 5.35542V3.50795ZM3.58205 16.566C2.42143 16.566 1.47689 15.6492 1.47689 14.5222C1.47689 13.3952 2.4212 12.4784 3.58205 12.4784C4.74289 12.4784 5.68712 13.3952 5.68712 14.5222C5.68712 15.6492 4.74266 16.566 3.58205 16.566ZM17.9692 0.717198C17.9692 0.500973 17.8688 0.296748 17.6963 0.160398C17.5232 0.0243483 17.296 -0.0294267 17.0787 0.0156483L6.27351 2.2244C5.93182 2.29422 5.68712 2.58702 5.68712 2.92595V6.23885V11.714C5.09535 11.2944 4.3692 11.0439 3.58205 11.0439C1.60689 11.0439 -3.05176e-05 12.6042 -3.05176e-05 14.522C-3.05176e-05 16.4398 1.60689 18 3.58205 18C5.5572 18 7.16405 16.4398 7.16405 14.522V6.82115L16.4923 4.91405V9.5516C15.9006 9.13205 15.1744 8.88125 14.3872 8.88125C12.4123 8.88125 10.8052 10.4415 10.8052 12.3594C10.8052 14.2772 12.412 15.8374 14.3872 15.8374C16.3624 15.8374 17.9692 14.277 17.9692 12.3594V4.07645C17.9692 4.06925 17.9673 4.06235 17.967 4.05515C17.9673 4.04675 17.9692 4.0388 17.9692 4.0304V0.717198Z" fill="black"/>
</g>
</g>
</svg>
