<svg width="127" height="127" xmlns="http://www.w3.org/2000/svg" fill="none">

 <g>
  <title>Layer 1</title>
  <path id="svg_1" fill="#2FBCF7" d="m63.4933,124.69c34.0777,0 61.7037,-27.625 61.7037,-61.7033c0,-34.0778 -27.626,-61.7033 -61.7037,-61.7033c-34.0778,0 -61.70334,27.6255 -61.70334,61.7033c0,34.0783 27.62554,61.7033 61.70334,61.7033z" clip-rule="evenodd" fill-rule="evenodd"/>
  <path id="svg_2" fill="black" d="m61.5,23c-22.9193,0 -41.5,18.5807 -41.5,41.5c0,22.919 18.5807,41.5 41.5,41.5c22.9193,0 41.5,-18.581 41.5,-41.5c0,-22.9193 -18.5807,-41.5 -41.5,-41.5zm0,3.7728c20.8028,0 37.727,16.9244 37.727,37.7272c0,8.402 -2.795,16.147 -7.4585,22.425c-5.4439,-8.666 -14.1702,-14.487 -24.1604,-16.192c5.2855,-2.347 8.9829,-7.6251 8.9829,-13.7784c0,-8.3341 -6.7571,-15.091 -15.091,-15.091c-8.3339,0 -15.091,6.7569 -15.091,15.091c0,6.1533 3.6974,11.4274 8.9829,13.7784c-9.9902,1.705 -18.7165,7.526 -24.1604,16.192c-4.6632,-6.278 -7.4587,-14.023 -7.4587,-22.425c0,-20.8028 16.9244,-37.7272 37.7272,-37.7272zm-11.3182,30.1818c0,-6.2402 5.0782,-11.3182 11.3182,-11.3182c6.24,0 11.3182,5.078 11.3182,11.3182c0,6.24 -5.0782,11.3184 -11.3182,11.3184c-6.24,0 -11.3182,-5.0784 -11.3182,-11.3184zm11.3182,45.2724c-10.9636,0 -20.818,-4.727 -27.7144,-12.22c5.727,-9.933 16.1283,-16.075 27.7144,-16.075c11.5861,0 21.9874,6.142 27.7144,16.075c-6.8964,7.493 -16.7508,12.22 -27.7144,12.22z" clip-rule="evenodd" fill-rule="evenodd"/>
 </g>
</svg>