<svg width="136" height="195" viewBox="0 0 136 195" fill="none" xmlns="http://www.w3.org/2000/svg">
<path fill-rule="evenodd" clip-rule="evenodd" d="M67.4933 161.69C101.571 161.69 129.197 134.065 129.197 99.9867C129.197 65.9089 101.571 38.2834 67.4933 38.2834C33.4155 38.2834 5.78996 65.9089 5.78996 99.9867C5.78996 134.065 33.4155 161.69 67.4933 161.69Z" fill="#2FBCF7" style="mix-blend-mode:multiply"/>
<path fill-rule="evenodd" clip-rule="evenodd" d="M67.5 59C44.5807 59 26 77.5807 26 100.5C26 123.419 44.5807 142 67.5 142C90.4193 142 109 123.419 109 100.5C109 77.5807 90.4193 59 67.5 59ZM67.5 62.7728C88.3028 62.7728 105.227 79.6972 105.227 100.5C105.227 108.902 102.432 116.647 97.7685 122.925C92.3246 114.259 83.5983 108.438 73.6081 106.733C78.8936 104.386 82.591 99.1079 82.591 92.9546C82.591 84.6205 75.8339 77.8636 67.5 77.8636C59.1661 77.8636 52.409 84.6205 52.409 92.9546C52.409 99.1079 56.1064 104.382 61.3919 106.733C51.4017 108.438 42.6754 114.259 37.2315 122.925C32.5683 116.647 29.7728 108.902 29.7728 100.5C29.7728 79.6972 46.6972 62.7728 67.5 62.7728ZM56.1818 92.9546C56.1818 86.7144 61.26 81.6364 67.5 81.6364C73.74 81.6364 78.8182 86.7144 78.8182 92.9546C78.8182 99.1946 73.74 104.273 67.5 104.273C61.26 104.273 56.1818 99.1946 56.1818 92.9546ZM67.5 138.227C56.5364 138.227 46.682 133.5 39.7856 126.007C45.5126 116.074 55.9139 109.932 67.5 109.932C79.0861 109.932 89.4874 116.074 95.2144 126.007C88.318 133.5 78.4636 138.227 67.5 138.227Z" fill="black"/>
</svg>
