<svg width="26" height="25" viewBox="0 0 26 25" fill="none" xmlns="http://www.w3.org/2000/svg">
<path fill-rule="evenodd" clip-rule="evenodd" d="M0.127504 16.8755C-0.224326 16.0446 0.176738 15.0902 1.02367 14.7446C1.23167 14.6603 1.44742 14.6201 1.65984 14.6201C2.3104 14.6201 2.92776 14.9978 3.19274 15.6255C4.72895 19.2592 8.5338 21.606 12.8863 21.606C17.1404 21.606 20.9231 19.2576 22.5229 15.6217C22.8869 14.7951 23.8638 14.4141 24.7047 14.7723C25.5455 15.1304 25.9328 16.0897 25.5688 16.9158C23.4429 21.7457 18.4641 24.8663 12.8858 24.8663C7.18789 24.8663 2.17984 21.7304 0.127504 16.8755ZM0.740993 4.7288C0.740993 2.12174 2.90065 0 5.55542 0C8.20908 0 10.3687 2.1212 10.3687 4.7288C10.3687 5.47935 9.74972 6.0875 8.98576 6.0875C8.2218 6.0875 7.60278 5.47935 7.60278 4.7288C7.60278 3.61957 6.68448 2.71739 5.55542 2.71739C4.4258 2.71739 3.50695 3.61957 3.50695 4.7288C3.50695 5.47935 2.88793 6.0875 2.12397 6.0875C1.36001 6.0875 0.740993 5.4788 0.740993 4.7288ZM16.0771 4.74348C16.0771 2.13587 18.2362 0.0146739 20.8915 0.0146739C23.5452 0.0146739 25.7043 2.13533 25.7043 4.74348C25.7043 5.49402 25.0853 6.10217 24.3213 6.10217C23.5574 6.10217 22.9384 5.49402 22.9384 4.74348C22.9384 3.63424 22.0201 2.73207 20.8915 2.73207C19.7619 2.73207 18.8431 3.63424 18.8431 4.74348C18.8431 5.49402 18.2241 6.10217 17.4601 6.10217C16.6961 6.10217 16.0771 5.49348 16.0771 4.74348Z" fill="black"/>
</svg>
